<svg width="60" height="80" viewBox="0 0 60 80" fill="none" xmlns="http://www.w3.org/2000/svg">
<rect x="2.5" y="2.5" width="55" height="75" rx="10.5" stroke="#DADADA" stroke-width="5"/>
<g clip-path="url(#clip0_140_560)">
<rect x="4" y="4" width="52" height="72" rx="10" fill="#6E6E6E"/>
<rect width="12.0704" height="85.8188" transform="translate(39.1484 -3.04578) rotate(22)" fill="white" fill-opacity="0.2"/>
<rect x="11" y="11" width="38" height="58" rx="6" stroke="#424242" stroke-width="3" stroke-linecap="round" stroke-linejoin="round" stroke-dasharray="0.1 15"/>
<g clip-path="url(#clip1_140_560)">
<rect x="14" y="14" width="32" height="52" rx="5" fill="#939393"/>
<rect width="12.0704" height="85.8188" transform="translate(43.1484 -2) rotate(22)" fill="white" fill-opacity="0.2"/>
<rect x="22.5" y="32.5" width="15" height="15" rx="7.5" stroke="#424242" stroke-width="3"/>
<rect x="27.5" y="37.5" width="5" height="5" rx="2.5" stroke="#424242" stroke-width="3"/>
<path d="M19 40H41" stroke="#424242" stroke-width="3" stroke-linecap="round"/>
<path d="M22.2217 32.2219L37.778 47.7783" stroke="#424242" stroke-width="3" stroke-linecap="round"/>
<path d="M37.7783 32.2219L22.222 47.7783" stroke="#424242" stroke-width="3" stroke-linecap="round"/>
<path d="M30 29L30 51" stroke="#424242" stroke-width="3" stroke-linecap="round"/>
</g>
<rect x="15.5" y="15.5" width="29" height="49" rx="3.5" stroke="#424242" stroke-width="3"/>
<rect x="13" y="22" width="11" height="2" rx="1" fill="#6E6E6E"/>
<rect x="13" y="22" width="11" height="2" rx="1" stroke="#424242" stroke-width="2"/>
<rect x="13" y="54" width="11" height="2" rx="1" fill="#6E6E6E"/>
<rect x="13" y="54" width="11" height="2" rx="1" stroke="#424242" stroke-width="2"/>
<rect x="11" y="19" width="4" height="8" rx="2" fill="#6E6E6E"/>
<rect x="11" y="19" width="4" height="8" rx="2" stroke="#424242" stroke-width="2"/>
<rect x="11" y="51" width="4" height="8" rx="2" fill="#6E6E6E"/>
<rect x="11" y="51" width="4" height="8" rx="2" stroke="#424242" stroke-width="2"/>
</g>
<rect x="6" y="6" width="48" height="68" rx="8" stroke="#424242" stroke-width="4"/>
<defs>
<clipPath id="clip0_140_560">
<rect x="4" y="4" width="52" height="72" rx="10" fill="white"/>
</clipPath>
<clipPath id="clip1_140_560">
<rect x="14" y="14" width="32" height="52" rx="5" fill="white"/>
</clipPath>
</defs>
</svg>
